<?xml version="1.0" encoding="iso-8859-1"?>
<!-- Generator: Adobe Illustrator 19.0.0, SVG Export Plug-In . SVG Version: 6.00 Build 0)  -->
<svg version="1.1" id="Capa_1" xmlns="http://www.w3.org/2000/svg" xmlns:xlink="http://www.w3.org/1999/xlink" x="0px" y="0px"
	 viewBox="0 0 512.002 512.002" style="enable-background:new 0 0 512.002 512.002; fill: white;" xml:space="preserve">
<g>
	<g>
		<polygon points="42.477,193.875 0.059,236.292 42.477,278.707 0.059,321.126 190.934,512 233.352,469.583 275.767,512 
			318.186,469.585 		"/>
	</g>
</g>
<g>
	<g>
		<polygon points="278.65,169.667 169.726,278.707 233.352,342.334 342.275,233.293 		"/>
	</g>
</g>
<g>
	<g>
		<polygon points="511.942,190.875 321.067,0 278.652,42.416 236.233,0 193.816,42.417 469.526,318.126 511.942,275.708 
			469.526,233.291 		"/>
	</g>
</g>
<g>
	<g>
		<rect x="428.93" y="8.032" transform="matrix(0.7071 -0.7071 0.7071 0.7071 96.9237 340.0366)" width="59.985" height="89.978"/>
	</g>
</g>
<g>
	<g>
		
			<rect x="23.101" y="413.993" transform="matrix(0.7071 -0.7071 0.7071 0.7071 -308.998 171.9752)" width="59.986" height="89.978"/>
	</g>
</g>
<g>
</g>
<g>
</g>
<g>
</g>
<g>
</g>
<g>
</g>
<g>
</g>
<g>
</g>
<g>
</g>
<g>
</g>
<g>
</g>
<g>
</g>
<g>
</g>
<g>
</g>
<g>
</g>
<g>
</g>
</svg>
